<svg width="2000" height="1163.6363636363637" xmlns="http://www.w3.org/2000/svg" viewBox="-8 -32 110 64" id="court_editor" style="background-color:#fafafa"><defs><marker id="arrowend" markerWidth="10" markerHeight="10" refX="10" refY="5" orient="auto"><polygon fill="#000000" points="0 0, 10 5, 0 10"/></marker><marker id="arrowstart" markerWidth="10" markerHeight="10" refX="0" refY="5" orient="auto"><polygon fill="#000000" points="10 0, 0 5, 10 10"/></marker></defs><svg version="1.1" x="-10" y="-35" xml:space="preserve" preserveAspectRatio="xMinYMin slice" width="114" height="70" viewBox="0 0 5280 4000" xmlns="http://www.w3.org/2000/svg"><rect width="5280" height="4000" x="0" y="0" fill="#FFFFFF"/></svg><rect stroke-width="0.2" fill="none" stroke="#D3D3D3" x="0" y="-25" height="50" width="94"/><path stroke-width="0.2" fill="none" stroke="#D3D3D3" d="M 4 -3 L 4 3"/><path stroke-width="0.2" fill="none" stroke="#D3D3D3" d="M  90 -3 L 90 3"/><circle r="0.75" cy="0" cx="5.25" fill="none" stroke-width="0.2" stroke="#D3D3D3"/><circle r="0.75" cy="0" cx="88.75" fill="none" stroke-width="0.2" stroke="#D3D3D3"/><path stroke-width="0.2" fill="none" stroke="#D3D3D3" d="M 94 -6 L 75 -6 L 75 6 L 94 6"/><path stroke-width="0.2" fill="none" stroke="#D3D3D3" d="M 0 -6 L 19 -6 L 19 6 L 0 6"/><path stroke-width="0.2" fill="none" stroke="#D3D3D3" d="M 19 6 A 6 6 0 0 0 19 -6"/><path stroke-width="0.2" fill="none" stroke="#D3D3D3" d="M 75 -6 A 6 6 0 0 0  75 6"/><path stroke-width="0.2" fill="none" stroke="#D3D3D3" d="M  0 -21.65 L  9.95 -21.65"/><path stroke-width="0.2" fill="none" stroke="#D3D3D3" d="M 0 21.65  L 9.95 21.65 "/><path stroke-width="0.2" fill="none" stroke="#D3D3D3" d="M  94 -21.65 L  84.05 -21.65"/><path stroke-width="0.2" fill="none" stroke="#D3D3D3" d="M  94 21.65 L  84.05 21.65"/><path stroke-width="0.2" fill="none" stroke="#D3D3D3" d="M  9.97974358272 21.65 A 22.15 22.15 0 0 0  9.97974358272 -21.65"/><path stroke-width="0.2" fill="none" stroke="#D3D3D3" d="M 84.0202564173 -21.65  A 22 22 0 0 0 84.0202564173 21.65"/><circle r="6" cy="0" cx="47" fill="none" stroke-width="0.2" stroke="#D3D3D3"/><path stroke-width="0.2" fill="none" stroke="#D3D3D3" d="M  47 -25 L 47 25 "/><rect id="court_bg_editor" fill="transparent" x="-5" y="-30" width="104" height="60"/><path stroke-width="0.2" fill="none" stroke="#D3D3D3" d="M 5.25 4 A 4 4 0 0 0 5.25 -4"/><path stroke-width="0.2" fill="none" stroke="#D3D3D3" d="M 88.75 -4 A 4 4 0 0 0 88.75 4"/><g><line x1="18" y1="-6" x2="18" y2="-6.5" stroke="#D3D3D3" stroke-width="0.2"/><line x1="15" y1="-6" x2="15" y2="-6.5" stroke="#D3D3D3" stroke-width="0.2"/><line x1="12" y1="-6" x2="12" y2="-6.5" stroke="#D3D3D3" stroke-width="0.2"/><rect x="8" y="-6.5" width="1" height="0.5" fill="#D3D3D3" stroke-width="0.2"/><line x1="18" y1="6" x2="18" y2="6.5" stroke="#D3D3D3" stroke-width="0.2"/><line x1="15" y1="6" x2="15" y2="6.5" stroke="#D3D3D3" stroke-width="0.2"/><line x1="12" y1="6" x2="12" y2="6.5" stroke="#D3D3D3" stroke-width="0.2"/><rect x="8" y="6" width="1" height="0.5" fill="#D3D3D3" stroke-width="0.2"/><line x1="76" y1="-6" x2="76" y2="-6.5" stroke="#D3D3D3" stroke-width="0.2"/><line x1="79" y1="-6" x2="79" y2="-6.5" stroke="#D3D3D3" stroke-width="0.2"/><line x1="82" y1="-6" x2="82" y2="-6.5" stroke="#D3D3D3" stroke-width="0.2"/><rect x="85" y="-6.5" width="1" height="0.5" fill="#D3D3D3" stroke-width="0.2"/><line x1="76" y1="6" x2="76" y2="6.5" stroke="#D3D3D3" stroke-width="0.2"/><line x1="79" y1="6" x2="79" y2="6.5" stroke="#D3D3D3" stroke-width="0.2"/><line x1="82" y1="6" x2="82" y2="6.5" stroke="#D3D3D3" stroke-width="0.2"/><rect x="85" y="6" width="1" height="0.5" fill="#D3D3D3" stroke-width="0.2"/></g><g id="labels"><g id="court_length"><line x1="0" y1="-28" x2="41" y2="-28" stroke-dasharray="0.2 0.2" stroke="#000000" stroke-width="0.1" marker-start="url(#arrowstart)"/><line x1="53" y1="-28" x2="94" y2="-28" stroke-dasharray="0.2 0.2" stroke="#000000" stroke-width="0.1" marker-end="url(#arrowend)"/><text fill="#000000" font-size="1.5" x="47" y="-28" font-family="Open Sans" dominant-baseline="central" text-anchor="middle">94′ | 28.65m</text></g><g id="court_width"><line x1="-4" y1="-25" x2="-4" y2="-3" stroke-dasharray="0.2 0.2" stroke="#000000" stroke-width="0.1" marker-start="url(#arrowstart)"/><line x1="-4" y1="3" x2="-4" y2="25" stroke-dasharray="0.2 0.2" stroke="#000000" stroke-width="0.1" marker-end="url(#arrowend)"/><text fill="#000000" font-size="1.5" x="-4" y="-1" font-family="Open Sans" dominant-baseline="central" text-anchor="middle">50′</text><text fill="#000000" font-size="1.5" x="-4" y="1" font-family="Open Sans" dominant-baseline="central" text-anchor="middle">15.24m</text></g><g id="charging_circle"><line x2="5.25" y2="0" x1="5.25" y1="-4" stroke-dasharray="0.2 0.2" stroke="#000000" stroke-width="0.1" marker-start="url(#arrowstart)"/><text fill="#000000" font-size="1.5" x="6.25" y="-5" font-family="Open Sans" dominant-baseline="central" text-anchor="middle">4′ | 1.22m</text></g><g id="three_point_line"><line x1="20.81" y1="15.56" x2="5.25" y2="0" stroke-dasharray="0.2 0.2" stroke="#000000" stroke-width="0.1" marker-start="url(#arrowstart)"/><text fill="#000000" font-size="1.5" transform="rotate(45,22.05,16.8)" x="18.05" y="15.3" font-family="Open Sans" dominant-baseline="central" text-anchor="end">22.15′</text><text fill="#000000" font-size="1.5" transform="rotate(45,22.05,16.8)" x="18.05" y="18.3" font-family="Open Sans" dominant-baseline="central" text-anchor="end">6.75m</text></g><g id="corner_three"><line x1="5.25" y1="21.65" x2="5.25" y2="18" stroke-dasharray="0.2 0.2" stroke="#000000" stroke-width="0.1" marker-start="url(#arrowstart)"/><line x1="5.25" y1="11.5" x2="5.25" y2="0" stroke-dasharray="0.2 0.2" stroke="#000000" stroke-width="0.1"/><text fill="#000000" font-size="1.5" x="5.25" y="13.75" font-family="Open Sans" dominant-baseline="central" text-anchor="middle">21.65′</text><text fill="#000000" font-size="1.5" x="5.25" y="15.75" font-family="Open Sans" dominant-baseline="central" text-anchor="middle">6.60m</text></g><g id="three_point_corner_space"><line x1="8" y1="21.65" x2="8" y2="25" stroke-dasharray="0.2 0.2" stroke="#000000" stroke-width="0.1" marker-end="url(#arrowend)" marker-start="url(#arrowstart)"/><text fill="#000000" font-size="1.5" x="7" y="23.5" font-family="Open Sans" dominant-baseline="central" text-anchor="end">3.35′</text><text fill="#000000" font-size="1.5" x="9" y="23.5" font-family="Open Sans" dominant-baseline="central" text-anchor="left">1.02m</text></g><g id="middle_circle"><line x2="47" y2="0" x1="53" y1="0" stroke-dasharray="0.2 0.2" stroke="#000000" stroke-width="0.1" marker-end="url(#arrowend)" marker-start="url(#arrowstart)"/><text fill="#000000" font-size="1.5" x="50" y="-1.25" font-family="Open Sans" dominant-baseline="central" text-anchor="middle">6′</text><text fill="#000000" font-size="1.5" x="50" y="1.5" font-family="Open Sans" dominant-baseline="central" text-anchor="middle">1.83m</text></g><g id="free_throw_circle"><line x2="19" y2="0" x1="25" y1="0" stroke-dasharray="0.2 0.2" stroke="#000000" stroke-width="0.1" marker-end="url(#arrowend)" marker-start="url(#arrowstart)"/><text fill="#000000" font-size="1.5" x="22" y="-1.25" font-family="Open Sans" dominant-baseline="central" text-anchor="middle">6′</text><text fill="#000000" font-size="1.5" x="22" y="1.5" font-family="Open Sans" dominant-baseline="central" text-anchor="middle">1.83m</text></g><g id="key_width"><line x2="81" y2="-2.5" x1="81" y1="-6" stroke-dasharray="0.2 0.2" stroke="#000000" stroke-width="0.1" marker-start="url(#arrowstart)"/><line x2="81" y2="6" x1="81" y1="2.5" stroke-dasharray="0.2 0.2" stroke="#000000" stroke-width="0.1" marker-end="url(#arrowend)"/><text fill="#000000" font-size="1.5" x="82" y="-1" font-family="Open Sans" dominant-baseline="central" text-anchor="middle">12′</text><text fill="#000000" font-size="1.5" x="82" y="1" font-family="Open Sans" dominant-baseline="central" text-anchor="middle">3.66m</text></g><g id="three_point_straight_line"><line x2="84" y2="23.5" x1="87" y1="23.5" stroke-dasharray="0.2 0.2" stroke="#000000" stroke-width="0.1" marker-end="url(#arrowend)"/><line x2="91" y2="23.5" x1="94" y1="23.5" stroke-dasharray="0.2 0.2" stroke="#000000" stroke-width="0.1" marker-start="url(#arrowstart)"/><text fill="#000000" font-size="1.5" x="89" y="23.5" font-family="Open Sans" dominant-baseline="central" text-anchor="middle">9.86′</text><text fill="#000000" font-size="1.5" x="89" y="26.5" font-family="Open Sans" dominant-baseline="central" text-anchor="middle">3.04m</text></g><g id="backboard"><line x2="91" y2="-3" x1="91" y1="3" stroke-dasharray="0.2 0.2" stroke="#000000" stroke-width="0.1" marker-end="url(#arrowend)" marker-start="url(#arrowstart)"/><text fill="#000000" font-size="1.5" x="92" y="-1" font-family="Open Sans" dominant-baseline="central" text-anchor="left">72″</text><text fill="#000000" font-size="1.5" x="92" y="1" font-family="Open Sans" dominant-baseline="central" text-anchor="left">1.83m</text></g><g id="free_throw_line"><line x1="0" y1="-8" x2="4.5" y2="-8" stroke-dasharray="0.2 0.2" stroke="#000000" stroke-width="0.1" marker-start="url(#arrowstart)"/><line x1="14.5" y1="-8" x2="19" y2="-8" stroke-dasharray="0.2 0.2" stroke="#000000" stroke-width="0.1" marker-end="url(#arrowend)"/><text fill="#000000" font-size="1.5" x="9.5" y="-8" font-family="Open Sans" dominant-baseline="central" text-anchor="middle">19′ | 5.79m</text></g><g><line x1="0" y1="0" x2="4" y2="0" stroke-dasharray="0.2 0.2" stroke="#000000" stroke-width="0.1" marker-end="url(#arrowend)" marker-start="url(#arrowstart)"/><text fill="#000000" font-size="1.5" x="2" y="-1" font-family="Open Sans" dominant-baseline="central" text-anchor="middle">4′</text></g><g><line x1="78" y1="8" x2="75" y2="8" stroke-dasharray="0.2 0.2" stroke="#000000" stroke-width="0.1" marker-end="url(#arrowend)"/><line x1="87" y1="8" x2="90" y2="8" stroke-dasharray="0.2 0.2" stroke="#000000" stroke-width="0.1" marker-end="url(#arrowend)"/><text fill="#000000" font-size="1.5" x="82.5" y="8" font-family="Open Sans" dominant-baseline="central" text-anchor="middle">15′ | 4.57m</text></g></g></svg>